<svg width="75" height="75" viewBox="0 0 75 75" fill="none" xmlns="http://www.w3.org/2000/svg"><rect width="75" height="75" rx="10" fill="#E5318E"></rect><g clip-path="url(#clip0_1_5356)"><path d="M40.5525 52.0098C40.5119 50.33 39.1855 49.0557 37.4651 49.0557C35.7448 49.0557 34.4531 50.4227 34.4531 52.1082C34.4531 53.7938 35.8433 55.1434 37.4883 55.1434C38.3514 55.1318 39.1333 54.8075 39.6952 54.234C40.2571 53.6548 40.5641 52.867 40.5583 52.0098H40.5525Z" fill="white"></path><path d="M42.0297 37.8997L42.968 37.0656C45.2908 35.0151 47.8394 32.7677 47.8568 29.6745C47.8742 27.5603 46.8431 25.394 45.0996 23.8764C43.2287 22.243 40.6221 21.3394 37.7549 21.3394C32.872 21.3394 27.6704 24.1429 27.1607 29.5008C27.126 29.8425 27.1839 30.0105 27.6357 30.0626C28.8984 30.2074 30.1785 30.3754 31.4355 30.5376C31.7019 30.5782 31.8989 30.6013 32.0495 30.6013C32.3333 30.6013 32.4028 30.5434 32.6345 29.802C33.3469 27.4908 35.1252 26.1065 37.3842 26.1065C39.1451 26.1065 40.7785 26.9927 41.4504 28.3133C41.8733 29.1474 42.1108 30.5029 40.848 32.2348C40.153 33.1905 39.232 33.874 38.3399 34.5343C37.222 35.3684 36.0636 36.2257 35.438 37.6159C34.5981 39.4752 34.5865 42.0586 34.6444 44.335C34.6444 44.6594 34.7371 44.752 35.0557 44.752C35.7913 44.7347 36.5617 44.7347 37.3031 44.7347C37.4653 44.7347 37.6217 44.7347 37.7723 44.7347H38.589C38.8439 44.7347 39.0987 44.7347 39.3478 44.7462C39.7301 44.7636 39.817 44.6709 39.846 44.6478C39.9213 44.5667 39.956 44.4161 39.9502 44.1786C39.9502 43.0027 39.9908 41.9427 40.0777 40.9117C40.1819 39.5389 41.1203 38.7048 42.0239 37.8997H42.0297Z" fill="white"></path><path d="M37.4996 63.276C51.7353 63.276 63.2756 51.7357 63.2756 37.5001C63.2756 23.2644 51.7353 11.7241 37.4996 11.7241C23.2639 11.7241 11.7236 23.2644 11.7236 37.5001C11.7236 51.7357 23.2639 63.276 37.4996 63.276Z" stroke="white" stroke-width="2.5" stroke-miterlimit="10"></path></g><defs><clipPath id="clip0_1_5356"><rect width="53" height="53" fill="white" transform="translate(11 11)"></rect></clipPath></defs></svg>