<svg width="14" height="17" viewBox="0 0 14 17" fill="none" xmlns="http://www.w3.org/2000/svg"><g clip-path="url(#clip0_1845_20242)"><path d="M9.54448 14.6962L14.0107 15.6371L13.4095 18L5.15337 15.7208C2.03988 14.8635 0 12.9606 0 8.64268V8.16175C0 3.42558 2.89877 1 6.83896 1C10.7791 1 13.5706 3.30012 13.5706 8.09902V8.4754C13.5706 11.9883 12.046 13.9643 9.53374 14.6962H9.54448ZM10.3819 8.8936V8.16175C10.3819 5.0043 9.35123 3.2583 6.7316 3.23739C4.3911 3.23739 3.21012 5.05658 3.21012 7.88991V8.64268C3.21012 11.8419 4.28374 13.5879 6.78528 13.5879C9.28681 13.5879 10.3712 11.7897 10.3712 8.8936H10.3819Z" fill="#E4308E"></path></g><defs><clipPath id="clip0_1845_20242"><rect width="14" height="17" fill="white"></rect></clipPath></defs></svg>