<svg xmlns="http://www.w3.org/2000/svg" width="112" height="45" viewBox="0 0 112 45" fill="none">
    <g clip-path="url(#clip0_1845_21554)">
        <path d="M89.904 22.8569H83.7329V37.7124H103.866L108.801 32.3128H89.904V22.8569Z" fill="white"></path>
        <path d="M62.5786 10.6935C61.2055 10.6935 60.0849 11.8147 60.0849 13.195C60.0849 14.5753 61.2002 15.6965 62.5786 15.6965C63.9569 15.6965 65.0723 14.5753 65.0723 13.195C65.0723 11.8147 63.9569 10.6935 62.5786 10.6935ZM62.5786 21.096C58.2436 21.096 54.7188 17.5527 54.7188 13.195C54.7188 8.83725 58.2436 5.29395 62.5786 5.29395C66.9136 5.29395 70.4384 8.83725 70.4384 13.195C70.4384 17.5527 66.9136 21.096 62.5786 21.096Z"
              fill="white"></path>
        <path d="M79.7713 20.9321L74.3999 26.6226V2.63916H79.7713V20.9321Z" fill="white"></path>
        <path d="M49.5735 0H32.0283V15.9184H49.5735V0ZM44.2074 10.5242H37.3997V5.39958H44.2074V10.5242Z"
              fill="white"></path>
        <path d="M35.4218 37.8078H50.3523V26.448H35.5639V24.137H50.0314L54.5979 18.7427H35.1535L30.0557 24.5283V31.1548H44.9809V32.9794H30.0557V45.0002H50.0472L54.298 39.8174H35.4218V37.8078Z"
              fill="white"></path>
        <path d="M23.9372 15.9186V2.63916H18.5711V31.652H10.5429V27.4582C13.5574 26.3529 15.7197 23.4495 15.7197 20.0437C15.7197 15.6859 12.1948 12.1426 7.85983 12.1426C3.52483 12.1426 0 15.6859 0 20.0437C0 23.4495 2.16224 26.3529 5.17676 27.4582V31.652H0.357743V37.0463H19.2918L23.9425 32.0433V21.3129H27.1569L32.0338 15.9133H23.9425L23.9372 15.9186ZM10.3483 20.0384C10.3483 21.4187 9.23294 22.5399 7.85457 22.5399C6.47621 22.5399 5.36615 21.4187 5.36615 20.0384C5.36615 18.6581 6.48147 17.5316 7.85457 17.5316C9.22768 17.5316 10.3483 18.6528 10.3483 20.0384ZM0.357743 10.8469H15.3672V5.45265H10.5482V2.64445H5.18202V5.45265H0.357743V10.8469Z"
              fill="white"></path>
        <path d="M56.2026 37.7126H63.7521L68.6605 31.6679L73.5742 37.7126H81.1237L68.6658 22.9365H68.6605L56.2026 37.7126Z"
              fill="white"></path>
        <path d="M112 3.31055H96.0174L91.5771 7.97502H106.813L112 3.31055Z" fill="white"></path>
        <path d="M106.812 7.97502V22.5555L112 17.2669V3.31055L106.812 7.97502Z" fill="white"></path>
        <path d="M102.998 11.4814H88.2942L83.2437 16.8123H97.1588L102.998 11.4814Z" fill="white"></path>
        <path d="M97.1587 16.8123V32.2019L102.998 26.2893V11.4814L97.1587 16.8123Z" fill="white"></path>
    </g>
    <defs>
        <clipPath id="clip0_1845_21554">
            <rect width="112" height="45" fill="white"></rect>
        </clipPath>
    </defs>
</svg>